<?xml version="1.0" standalone="no"?>
<!DOCTYPE svg PUBLIC "-//W3C//DTD SVG 20010904//EN"
 "http://www.w3.org/TR/2001/REC-SVG-20010904/DTD/svg10.dtd">
<svg version="1.0" xmlns="http://www.w3.org/2000/svg"
 width="500.000000pt" height="500.000000pt" viewBox="0 0 500.000000 500.000000"
 preserveAspectRatio="xMidYMid meet">
<metadata>
Created by potrace 1.14, written by Peter Selinger 2001-2017
</metadata>
<g transform="translate(0.000000,500.000000) scale(0.100000,-0.100000)"
fill="#000000" stroke="none">
<path d="M1670 4570 c0 -5 -7 -7 -15 -4 -8 4 -15 2 -15 -3 0 -5 -13 -8 -30 -7
-16 1 -30 -2 -30 -7 0 -5 -9 -9 -20 -9 -11 0 -20 -5 -20 -11 0 -5 -4 -8 -9 -4
-5 3 -13 0 -16 -6 -4 -5 -13 -8 -21 -5 -8 3 -14 0 -14 -7 0 -7 -9 -13 -21 -14
-12 -1 -27 -10 -35 -20 -7 -10 -14 -14 -14 -9 0 5 -8 -1 -19 -12 -10 -12 -21
-19 -25 -15 -3 3 -6 1 -6 -6 0 -7 -5 -9 -10 -6 -6 4 -9 3 -8 -2 1 -4 -19 -29
-44 -55 -26 -27 -45 -48 -42 -48 3 0 -7 -12 -21 -26 -14 -14 -23 -29 -20 -34
3 -4 -2 -11 -11 -14 -8 -3 -12 -10 -9 -16 3 -5 1 -10 -5 -10 -7 0 -10 -6 -7
-14 3 -8 -1 -17 -9 -20 -8 -3 -13 -11 -12 -18 2 -7 -2 -12 -8 -11 -7 1 -9 -8
-6 -22 2 -14 0 -25 -5 -25 -5 0 -10 -8 -11 -17 -3 -33 -7 -48 -16 -62 -7 -11
-6 -12 5 -6 11 7 12 6 3 -6 -13 -16 -14 -24 -13 -144 1 -119 1 -115 13 -115 6
0 4 -5 -4 -10 -8 -5 -10 -10 -5 -10 6 0 12 -15 13 -32 2 -18 7 -35 12 -36 6
-2 8 -8 4 -13 -3 -5 -1 -9 5 -9 6 0 8 -7 5 -15 -4 -8 -1 -15 5 -15 6 0 11 -5
11 -11 0 -5 -6 -7 -12 -3 -7 4 -3 -3 10 -15 12 -12 20 -26 17 -31 -3 -5 3 -15
13 -22 11 -7 18 -21 16 -30 -1 -10 11 -28 27 -40 16 -13 29 -29 29 -36 0 -7 5
-10 10 -7 6 3 10 1 10 -5 0 -21 114 -118 133 -112 4 1 7 -3 7 -8 0 -6 7 -10
15 -10 9 0 18 -6 21 -14 3 -8 14 -13 25 -11 11 2 18 1 15 -3 -2 -4 7 -12 20
-19 14 -6 21 -7 18 -1 -4 6 4 3 17 -5 22 -14 81 -31 95 -27 4 1 10 -4 15 -11
6 -10 11 -10 22 -1 11 9 14 8 14 -3 0 -15 -5 -17 -44 -18 -13 0 -23 -3 -23 -8
0 -5 -6 -6 -13 -3 -7 2 -29 -2 -49 -10 -19 -8 -38 -12 -42 -9 -3 4 -6 1 -6 -5
0 -7 -7 -12 -16 -12 -8 0 -12 -4 -9 -10 3 -6 -1 -7 -9 -4 -9 3 -16 1 -16 -5 0
-6 -3 -10 -7 -9 -14 4 -53 -13 -53 -23 0 -5 -4 -9 -10 -9 -12 0 -44 -26 -78
-62 -14 -15 -30 -25 -36 -21 -6 3 -8 3 -4 -2 4 -4 -2 -16 -14 -26 -11 -11 -17
-19 -12 -19 5 0 -2 -7 -14 -16 -12 -8 -20 -19 -17 -24 3 -4 -2 -10 -10 -14 -8
-3 -15 -12 -15 -21 0 -8 -5 -15 -12 -15 -6 0 -8 -3 -5 -7 4 -3 -1 -12 -11 -20
-9 -8 -11 -11 -4 -8 11 6 11 3 0 -14 -7 -12 -16 -21 -20 -21 -4 0 -5 -9 -3
-20 2 -11 1 -20 -3 -20 -4 0 -8 -10 -9 -22 -1 -11 -8 -25 -15 -29 -7 -5 -9 -9
-4 -9 5 0 2 -8 -5 -17 -12 -14 -12 -16 0 -8 10 6 12 4 6 -5 -13 -20 -16 -57
-15 -159 0 -52 5 -99 10 -106 6 -7 5 -16 -2 -23 -7 -7 -8 -12 -2 -12 5 0 11
-12 12 -27 1 -15 5 -29 10 -32 4 -3 9 -17 10 -31 2 -14 8 -27 13 -28 5 -2 7
-7 4 -12 -3 -5 2 -16 11 -24 8 -9 12 -16 8 -16 -4 0 0 -8 8 -17 17 -21 32 -54
29 -67 -1 -5 5 -6 13 -3 9 4 15 3 15 -1 -3 -20 2 -33 11 -27 6 3 10 -1 10 -9
0 -8 9 -20 20 -26 11 -6 20 -17 20 -25 0 -8 5 -15 10 -15 6 0 21 -10 34 -23
41 -39 64 -56 70 -50 3 4 6 1 6 -6 0 -7 5 -9 10 -6 6 3 10 1 10 -4 0 -6 7 -11
16 -11 8 0 13 -4 10 -8 -2 -4 5 -9 17 -9 12 -1 23 -7 25 -12 2 -5 10 -7 18 -4
8 3 14 0 14 -7 0 -6 4 -9 9 -5 5 3 13 0 16 -6 4 -5 13 -8 21 -5 8 3 14 0 14
-6 0 -6 6 -5 17 3 9 8 14 9 11 4 -4 -6 5 -15 18 -22 13 -6 22 -7 18 -2 -8 13
10 11 24 -3 9 -9 12 -9 12 0 0 7 4 12 10 12 5 0 7 -6 4 -13 -3 -8 -19 -14 -37
-15 -17 0 -33 -6 -35 -12 -3 -8 -8 -8 -18 1 -11 9 -14 9 -14 0 0 -7 -4 -10 -8
-7 -5 3 -26 -3 -48 -13 -53 -25 -78 -34 -86 -33 -5 1 -8 -2 -8 -8 0 -5 -7 -10
-15 -10 -7 0 -19 -8 -24 -17 -7 -13 -10 -14 -11 -4 0 9 -9 4 -23 -12 -12 -15
-26 -27 -30 -27 -13 0 -117 -111 -112 -120 3 -5 -4 -11 -15 -15 -11 -4 -18
-10 -15 -15 3 -4 -2 -11 -10 -14 -8 -3 -14 -9 -14 -13 3 -13 -14 -48 -27 -56
-7 -4 -11 -14 -8 -22 4 -8 1 -15 -6 -15 -6 0 -8 -4 -5 -10 3 -5 1 -10 -5 -10
-6 0 -8 -5 -5 -10 4 -6 1 -17 -5 -25 -7 -8 -10 -22 -6 -30 3 -8 1 -15 -5 -15
-6 0 -7 -4 -4 -10 3 -5 2 -10 -2 -10 -15 0 -14 -263 0 -272 9 -6 8 -8 -2 -8
-11 0 -11 -3 0 -17 12 -15 12 -16 -1 -8 -12 6 -13 5 -2 -6 6 -7 12 -21 12 -31
0 -10 4 -18 9 -18 4 0 7 -11 6 -25 -2 -14 2 -28 7 -32 7 -4 8 -1 3 7 -6 9 -4
11 4 5 7 -4 11 -16 8 -26 -3 -11 -1 -19 5 -19 5 0 7 -4 4 -9 -4 -5 -2 -11 3
-13 5 -1 11 -10 13 -18 2 -8 9 -21 16 -28 7 -8 9 -19 5 -25 -3 -7 -3 -9 2 -5
10 9 35 -17 35 -37 0 -9 4 -13 10 -10 5 3 10 2 10 -2 0 -13 99 -113 113 -114
7 -1 16 0 22 1 5 1 7 -1 3 -5 -8 -9 16 -35 31 -35 6 0 11 -4 11 -10 0 -5 5
-10 11 -10 5 0 7 6 4 13 -4 6 3 1 14 -12 12 -13 27 -21 36 -17 9 3 15 0 15 -9
0 -7 8 -14 18 -14 30 1 56 -7 59 -18 2 -6 17 -9 33 -7 17 2 30 -1 30 -7 0 -8
5 -7 15 1 10 8 15 9 15 2 0 -7 15 -10 35 -8 19 1 35 -2 35 -6 0 -5 5 -6 12 -2
7 4 36 7 65 6 29 0 53 3 53 7 0 5 15 7 33 6 17 0 43 6 57 14 18 12 22 12 16 2
-6 -9 -1 -8 16 3 14 9 28 13 31 9 4 -3 7 -1 7 6 0 7 5 9 10 6 6 -3 17 1 26 9
8 9 25 16 36 16 12 0 18 3 15 6 -4 4 9 15 27 25 19 10 46 29 61 43 15 14 32
23 38 19 6 -3 7 -1 3 6 -4 6 0 14 8 17 9 3 27 25 41 48 13 22 28 41 32 41 5 0
7 3 6 7 -2 5 4 8 12 8 8 0 14 3 13 7 -2 13 15 47 31 61 13 11 13 12 1 7 -8 -4
-6 1 4 9 11 9 16 16 12 16 -5 0 -3 6 3 13 6 8 8 17 4 20 -3 4 -2 7 4 7 5 0 10
7 11 15 1 8 3 22 4 30 1 8 5 15 10 15 5 0 6 5 3 10 -4 6 -2 17 4 24 6 7 9 22
6 34 -2 12 1 22 7 22 7 0 7 4 -1 13 -6 8 -8 17 -4 21 4 4 9 18 11 32 2 18 -1
24 -9 18 -9 -5 -9 -3 -3 7 12 19 14 170 2 193 -7 13 -7 16 1 12 7 -5 11 1 11
14 0 14 -4 19 -13 14 -9 -6 -9 -4 -1 7 6 8 10 52 10 104 -1 50 2 96 7 103 6 7
6 12 0 12 -5 0 -8 45 -7 100 1 72 -2 98 -10 93 -8 -5 -8 -3 0 8 13 17 13 58 0
78 -6 9 -5 12 2 7 13 -8 11 102 -3 123 -5 9 -4 12 1 8 6 -3 10 53 9 144 0 87
4 149 9 149 6 0 1 7 -10 16 -10 8 -13 13 -6 9 9 -5 11 4 9 34 -2 24 1 41 7 41
7 0 8 3 1 8 -5 4 -11 14 -13 22 -2 11 1 10 12 -3 8 -10 12 -27 9 -37 -3 -13 0
-20 8 -20 11 0 11 -2 -1 -10 -12 -7 -12 -10 -1 -10 7 0 11 -6 7 -15 -3 -8 -1
-15 5 -15 6 0 9 -7 5 -15 -3 -8 -1 -15 5 -15 6 0 8 -4 4 -9 -3 -5 1 -16 9 -24
8 -8 12 -17 9 -21 -4 -3 -1 -6 5 -6 6 0 9 -6 6 -14 -3 -8 0 -17 7 -22 8 -5 10
-3 4 6 -5 8 -4 11 3 6 6 -4 9 -13 5 -21 -3 -8 0 -15 6 -15 6 0 11 -7 11 -15 0
-8 5 -15 11 -15 5 0 8 -4 5 -9 -3 -5 6 -17 19 -27 14 -10 25 -22 25 -26 0 -11
38 -48 49 -48 5 0 13 -9 16 -20 4 -11 11 -18 16 -15 5 4 9 1 9 -4 0 -6 6 -11
14 -11 8 0 18 -5 22 -12 5 -7 2 -8 -7 -3 -11 6 -11 5 -3 -4 6 -7 18 -14 25
-16 40 -9 58 -18 53 -26 -3 -5 2 -9 10 -9 9 0 16 -5 16 -11 0 -8 4 -8 14 0 10
9 15 8 19 -3 3 -8 16 -13 31 -12 14 2 23 0 21 -4 -3 -5 2 -10 9 -13 8 -3 17
-1 20 6 2 7 5 3 5 -8 1 -17 3 -17 11 -5 5 8 10 10 10 5 0 -6 12 -12 27 -13 15
-1 30 -8 35 -15 5 -8 8 -9 8 0 0 9 19 11 40 3 14 -6 37 -5 51 2 9 4 21 2 27
-4 7 -7 12 -8 12 -2 0 12 40 12 57 1 9 -5 11 -3 8 5 -4 9 2 14 17 15 20 1 54
8 68 13 3 1 9 2 14 1 5 -1 12 3 16 9 4 6 17 12 28 13 12 1 22 5 22 10 0 4 4 6
9 2 5 -3 15 0 23 7 7 7 20 14 28 16 7 2 20 11 28 20 7 9 11 11 7 5 -3 -7 -1
-13 4 -13 6 0 11 7 11 16 0 8 4 13 9 10 5 -3 11 1 15 9 3 8 11 15 18 15 7 0
19 9 26 20 7 12 18 18 25 14 7 -4 9 -4 5 0 -4 5 18 32 48 62 30 30 48 54 42
54 -7 1 -2 7 12 15 14 8 19 14 11 15 -11 0 -9 4 5 15 10 8 15 15 9 15 -7 0 -7
3 0 8 13 9 56 94 45 87 -5 -3 -2 7 5 23 22 43 28 96 26 232 -1 146 -3 173 -13
181 -5 3 -9 17 -10 32 -1 15 -6 27 -9 27 -4 0 -10 13 -14 30 -4 16 -14 34 -23
40 -13 7 -13 9 -3 10 10 0 8 5 -6 18 -11 9 -18 23 -16 30 3 6 -3 12 -12 12 -9
0 -13 5 -10 10 3 6 1 10 -4 10 -6 0 -11 5 -11 11 0 13 -82 95 -92 92 -4 -2
-10 6 -13 17 -6 18 -17 24 -37 21 -5 0 -8 6 -8 15 0 8 -5 12 -10 9 -5 -3 -10
-1 -10 4 0 6 -7 11 -15 11 -8 0 -15 5 -15 11 0 5 -4 8 -10 4 -5 -3 -19 4 -30
15 -12 12 -28 19 -36 16 -8 -3 -14 -2 -14 2 0 4 -11 12 -25 19 -19 8 -23 8
-18 0 5 -9 2 -8 -8 0 -17 13 -71 26 -109 25 l-25 -1 25 11 c31 13 120 39 138
40 6 1 12 5 12 10 0 5 5 6 10 3 6 -3 10 -2 10 4 0 6 7 8 15 5 8 -4 17 1 21 10
3 9 10 14 14 11 5 -3 11 -1 15 5 4 6 10 8 15 5 4 -3 10 2 14 10 3 8 11 15 18
15 8 0 20 9 27 19 8 11 21 17 29 13 10 -3 13 -1 8 6 -3 6 3 16 14 22 11 6 18
15 15 21 -4 5 -1 8 7 7 7 -2 12 3 10 10 -1 6 1 11 5 10 13 -4 54 28 46 36 -4
3 4 14 16 23 18 12 20 17 10 24 -11 7 -10 9 4 9 15 0 34 28 35 53 0 5 9 15 19
24 10 8 11 11 4 7 -9 -4 -5 6 8 25 13 17 20 38 17 46 -3 8 -1 15 5 15 6 0 8 4
4 9 -3 5 -1 12 3 15 11 6 15 76 13 216 -2 135 -3 150 -12 150 -4 0 -8 8 -8 18
-1 38 -5 52 -13 52 -4 0 -8 6 -8 13 0 18 -24 67 -32 67 -5 0 -8 5 -8 11 0 5 6
7 13 4 6 -4 4 0 -5 8 -10 8 -15 17 -11 20 3 4 -2 7 -12 7 -10 0 -15 3 -12 7
10 9 -14 34 -26 26 -6 -3 -7 -1 -3 5 7 12 -113 142 -132 142 -7 0 -12 5 -12
10 0 6 -7 10 -16 10 -8 0 -12 5 -9 10 4 6 3 9 -2 8 -14 -5 -93 31 -93 43 0 5
-4 8 -9 5 -5 -3 -25 1 -45 9 -20 8 -36 12 -36 8 0 -5 -5 -1 -10 7 -8 13 -116
15 -855 17 -520 2 -845 -1 -845 -7z m860 -1380 c9 5 19 5 27 -2 7 -6 13 -7 13
-2 0 11 80 11 97 1 6 -4 15 -2 19 4 4 8 9 7 15 -2 7 -11 9 -11 9 -1 0 8 9 10
28 6 31 -6 37 -7 75 -1 15 2 30 1 33 -4 2 -5 16 -4 29 1 13 5 26 6 29 1 5 -7
86 -5 94 3 2 3 15 1 28 -4 17 -7 24 -6 25 3 0 9 2 9 5 0 3 -7 13 -9 22 -6 9 3
14 3 10 -2 -4 -4 -20 -9 -35 -11 -16 -1 -29 -3 -30 -4 -2 -1 -7 -4 -13 -5 -5
-1 -13 -4 -17 -5 -5 -1 -12 -3 -18 -4 -34 -7 -65 -19 -65 -27 0 -5 -3 -8 -7
-7 -5 1 -30 -9 -58 -22 -27 -13 -53 -23 -57 -22 -8 2 -12 -14 -9 -31 1 -5 -3
-6 -9 -2 -6 4 -26 -9 -45 -29 -18 -20 -38 -36 -44 -36 -6 0 -10 -4 -8 -9 1 -5
-7 -17 -18 -26 -11 -9 -13 -14 -5 -10 10 4 9 2 -2 -8 -10 -8 -15 -16 -12 -20
3 -3 -4 -8 -15 -12 -12 -3 -19 -11 -16 -16 4 -5 1 -9 -5 -9 -7 0 -10 -7 -6
-15 3 -8 1 -15 -4 -15 -5 0 -12 -10 -16 -22 -4 -13 -9 -25 -13 -28 -3 -3 -12
-15 -19 -27 -10 -19 -10 -23 0 -23 10 0 10 -2 0 -8 -11 -8 -22 -38 -24 -69 -1
-7 -7 -13 -15 -13 -14 0 -12 37 3 61 4 7 3 9 -3 6 -12 -7 -11 92 1 112 5 7 5
16 -1 20 -5 3 -9 17 -8 31 0 14 -4 33 -8 44 -6 13 -6 16 2 12 8 -5 10 8 6 44
-3 33 -2 49 5 45 6 -3 7 0 4 9 -3 9 -11 13 -17 9 -6 -4 -7 -1 -1 8 5 8 9 39
10 69 2 80 3 87 12 73 5 -8 13 -9 22 -3z m-15 -560 c3 -6 -1 -7 -9 -4 -18 7
-21 14 -7 14 6 0 13 -4 16 -10z m-5 -30 c0 -5 -2 -10 -4 -10 -3 0 -8 5 -11 10
-3 6 -1 10 4 10 6 0 11 -4 11 -10z"/>
</g>
</svg>
